<?xml version="1.0" encoding="utf-8"?>
<!-- Generator: Adobe Illustrator 18.1.1, SVG Export Plug-In . SVG Version: 6.00 Build 0)  -->
<svg version="1.1" xmlns="http://www.w3.org/2000/svg" xmlns:xlink="http://www.w3.org/1999/xlink" x="0px" y="0px"
	 viewBox="51 354 695 699" enable-background="new 51 354 695 699" xml:space="preserve">
<g id="Layer_2">
	<ellipse fill="#F2E9E4" cx="401.5" cy="696" rx="316.5" ry="327"/>
</g>
<g id="Layer_1">
	<path d="M400,836c-8.8,0-16,7.2-16,16v32c0,8.8,7.2,16,16,16s16-7.2,16-16v-32C416,843.2,408.8,836,400,836z"/>
	<path d="M326.7,578.9c1.4-1.5,2.8-3.1,4.3-4.8c13.7-15.3,32.4-36.1,73.2-36.1c45.3,0,73.3,29.6,73.3,57c0,27.5-13.4,39.8-43.6,64.9
		l-2.1,1.8C398.1,689.8,384,711.3,384,772c0,8.8,7.2,16,16,16s16-7.2,16-16c0-51,9.4-63.3,36.2-85.7l2.1-1.8
		c29.6-24.6,55.1-45.9,55.1-89.5c0-42.8-40.3-89-105.3-89c-55,0-82.3,30.4-97,46.8c-1.4,1.5-2.7,3-3.9,4.3c-6,6.5-5.7,16.6,0.8,22.6
		C310.5,585.7,320.7,585.4,326.7,578.9z"/>
	<path d="M400,1036c182.1,0,336-153.9,336-336S582.1,364,400,364S64,517.9,64,700S217.9,1036,400,1036z M400,396
		c164.8,0,304,139.2,304,304s-139.2,304-304,304S96,864.8,96,700S235.2,396,400,396z"/>
</g>
</svg>
