<?xml version="1.0" encoding="utf-8"?>
<!-- Generator: Adobe Illustrator 18.1.1, SVG Export Plug-In . SVG Version: 6.00 Build 0)  -->
<svg version="1.1" id="Layer_1" xmlns="http://www.w3.org/2000/svg" xmlns:xlink="http://www.w3.org/1999/xlink" x="0px" y="0px"
	 viewBox="0 0 216 216" enable-background="new 0 0 216 216" xml:space="preserve">
<g>
	<g>
		<g id="XMLID_1_">
			<g>
				<path fill="#307B8C" d="M185.2,52.6c0,0,22.9,20.7,15.6,94.9H14.5C9.8,128.7,8,90.7,15.8,76.6c-0.6-1.1-3.2,1.7-4.3,1.9
					c0.7-8.1,13.3-25.1,13.3-25.1s2.2-4.9-4.6-6C43.7,9.5,88.4,7.2,88.4,7.2s9.5-2.2,1.1-5.1C95.8,2.4,103,6,103,6s6.8-2.2,3.5-5.6
					c4,0.7,7.5,6.5,7.5,6.5s17.1-1.4,23.2,0.9c1.9,0.7-3.1,1.1-2.5,2.8c18.7,3.4,55.9,31.1,60.4,39.8
					C187.8,48.5,185.2,52.6,185.2,52.6z M165.1,129c-13.2-20.2,4.8-47.2-24.1-60.4c0,0-1.4,3.2-2,6.4c-15.1-7.4-24.1-25-24.1-25
					s-6,15.6-17.8,22.6c-1.5-4.9-8-9.1-8-9.1s-9.2,17-18.1,18.6c0.2-8.6-15.1,4.8-19.5,15.9c-3.4,8.7-0.6,17.3-0.7,25.5
					c15.4-3.7,28.4-5.7,39.9-6.4c-0.1,6.1,2.6,7.8,14.7,7.8c12.1,0,14.4-1.6,14.6-6.8C134.6,120,148.4,124.1,165.1,129z"/>
				<path fill="#307B8C" d="M199.7,157.4c0.4,0,0.6,0,0.6,0.5c-1.2,12.4-3.8,29.4-5.9,36.5c-0.6,2-0.8,2.2-2.8,3.2
					c-1.2,0.6-3.4,1-4.5,1.5l11,14c0.1,0,0.4,0.4,0,0.7c-0.3,0.2-8.3,2.5-8.8,2.6c-0.4,0.1-0.6-0.2-0.6-0.2l-12.6-15.4
					c0,0-3.3,0.4-5.3,0.4c-0.5,4.5-0.5,7.9-0.8,12.7c0,0-0.2,0.3-0.4,0.3h-9c-0.3,0-0.3-0.3-0.3-0.3c-0.4-11.9-0.4-44.3-0.8-56.1
					c0-0.2,0.2-0.4,0.6-0.4c0.4,0,10.3,0.1,10.7,0c0.4,0,0.5,0,0.5,0.4c0,0.3-0.5,33.3-0.5,33.3c5.3-0.3,8.7-0.4,12.8-2.6
					c1.2-0.7,1.9-1.1,2.4-2.8c1.1-5,2.4-11.6,2.9-27.8c0.1-0.4,0.5-0.4,0.5-0.4H199.7z"/>
				<path fill="#307B8C" d="M148,160.4c4,13.9,2,35.4-0.9,49.3c-0.5,2.1-0.8,3.6-2.9,4.1c-5.2,1.1-24.5,1.5-31,0
					c-2.2-0.5-2.5-1.1-3.1-3.5c-3.2-12.9-4-37.2-0.2-50.5c0.5-1.6,1.2-1.8,2.4-2c4.2-0.8,27.9-1.1,32.7-0.1
					C147.1,158.2,147.4,158.4,148,160.4z M135.9,203.2c3.4-6.8,4.3-26.4,1.1-33.8c-0.4-1.1-0.8-1.4-1.9-1.8
					c-2.2-0.8-8.9-0.9-11.5-0.2c-1.7,0.6-2.3,1-2.8,2.3c-2.7,6.6-3.6,27,0.8,33.6c0.3,0.5,0.8,1,1.5,1.2c2.6,0.8,7.8,1,10.9,0.2
					C135,204.5,135.4,204.2,135.9,203.2z"/>
				<path d="M132.6,103c1.1,0,1.9,0.9,1.9,1.9c0,1.1-0.9,1.9-1.9,1.9c-1.1,0-1.9-0.9-1.9-1.9C130.7,103.9,131.6,103,132.6,103z"/>
				<path d="M132.6,102.2c1.5,0,2.8,1.2,2.8,2.8s-1.2,2.8-2.8,2.8c-1.5,0-2.8-1.2-2.8-2.8S131.1,102.2,132.6,102.2z M134.6,104.9
					c0-1.1-0.9-1.9-1.9-1.9c-1.1,0-1.9,0.9-1.9,1.9c0,1.1,0.8,1.9,1.9,1.9C133.7,106.9,134.6,106,134.6,104.9z"/>
				<path d="M136.3,104.9c0,2-1.6,3.6-3.6,3.6s-3.6-1.6-3.6-3.6c0-2,1.6-3.6,3.6-3.6S136.3,102.9,136.3,104.9z M135.4,104.9
					c0-1.5-1.2-2.8-2.8-2.8c-1.5,0-2.8,1.2-2.8,2.8s1.2,2.8,2.8,2.8C134.2,107.7,135.4,106.5,135.4,104.9z"/>
				<path fill="#307B8C" d="M87.8,198c4.2,5.9,6.8,9.2,10.6,14.8c0.2,0.3,0.1,0.6-0.2,0.8c-0.2,0.1-5.6,2-7.6,2.8
					c-0.3,0.1-0.8,0.1-1-0.2c-0.2-0.2-12.9-15.5-12.9-15.5c-0.8,0.2-1.3,0.1-5.8,0.9c-0.2,4.4-0.2,7.9-0.4,12.2
					c-0.1,0.1-0.2,0.6-0.5,0.6h-8.5c-0.4,0-0.7-0.4-0.7-0.7c0,0-1-55.2-1-55.6c0-0.4,0.6-0.5,1-0.5c12.3-0.7,26.4-0.9,33.6,0.3
					c1.2,0.2,1.8,0.9,2.3,3c1.8,8.1,2.5,22.3,0.8,31.5c-0.2,1.4-0.2,2.5-1.7,3.2C93.4,196.7,90.8,197.4,87.8,198z M87.6,185.3
					c0.6-4.7,0-14-2.5-17.8c-0.2-0.4-0.7-0.8-1.2-0.9c-4-0.4-7.6,0.2-11.4,0.8c-0.4,0.1-0.6,0.3-0.6,0.5c-0.4,8.7-0.8,14.3-0.8,23
					c0,0.5,0.5,0.7,0.8,0.6c4.5-0.2,9.8-1.8,12.9-3.2C87.2,187.4,87.4,186.8,87.6,185.3z"/>
				<path d="M76,103c1,0,1.9,0.9,1.9,1.9c0,1.1-0.9,1.9-1.9,1.9c-1.1,0-1.9-0.9-1.9-1.9C74.1,103.9,74.9,103,76,103z"/>
				<path d="M77.9,104.9c0-1.1-0.9-1.9-1.9-1.9c-1.1,0-1.9,0.9-1.9,1.9c0,1.1,0.9,1.9,1.9,1.9C77,106.9,77.9,106,77.9,104.9z
					 M76,102.2c1.5,0,2.8,1.2,2.8,2.8s-1.2,2.8-2.8,2.8c-1.5,0-2.8-1.2-2.8-2.8S74.5,102.2,76,102.2z"/>
				<path d="M78.7,104.9c0-1.5-1.2-2.8-2.8-2.8c-1.5,0-2.8,1.2-2.8,2.8s1.2,2.8,2.8,2.8C77.5,107.7,78.7,106.5,78.7,104.9z
					 M76,101.3c2,0,3.6,1.6,3.6,3.6c0,2-1.6,3.6-3.6,3.6s-3.6-1.6-3.6-3.6C72.4,102.9,74,101.3,76,101.3z"/>
				<path fill="#307B8C" d="M51,157.7c0.4,0,0.5,0.1,0.4,0.5c-0.1,0.3-1.4,5.4-2,7.4c0,0-0.2,0.4-0.6,0.4c-1.2,0-16.7,0-20.6,1.5
					c-1.7,0.7-2.2,1.5-2.6,4.4c-0.8,5.4-1.2,9.4-1.2,14c-0.2,5.7,0,11.5,1.9,17c0.7,1.9,2.9,2.4,4.6,2.5c2.8,0.3,3.6,0.4,6.9-0.2
					c0.7-0.1,0.7-0.4,0.7-1c0.1-0.8,0.8-22.5,0.8-22.5c0-0.3,0.1-0.6,0.5-0.6c0.2,0,9.2,0,9.4,0c0.3,0,0.3,0.2,0.4,0.5l-0.2,31.8
					c0,0.4-0.5,0.6-0.6,0.6c-8.1,0.5-21.1,0.4-27.8-0.2c-2.8-0.2-3.8-0.5-4.7-3c-3.2-8.7-4-18-4-31.5c0-4.2,0.8-12.9,2-18
					c0.8-3.8,2.3-3.8,6.3-4.1C30,156.8,40.9,156.9,51,157.7z"/>
			</g>
			<g>
			</g>
		</g>
	</g>
</g>
</svg>
