<?xml version="1.0" encoding="utf-8"?>
<!-- Generator: Adobe Illustrator 18.1.1, SVG Export Plug-In . SVG Version: 6.00 Build 0)  -->
<svg version="1.1" xmlns="http://www.w3.org/2000/svg" xmlns:xlink="http://www.w3.org/1999/xlink" x="0px" y="0px"
	 viewBox="122 915 816 815" enable-background="new 122 915 816 815" xml:space="preserve">
<g id="Layer_2">
	<ellipse fill="#FFFFFF" cx="521" cy="1314" rx="322" ry="331.5"/>
</g>
<g id="Layer_1">
	<g>
		<path d="M759.6,1267.4c-9.9-1-18.7,0.4-28.2,1.9c-1,0.2-1.4,0.8-1.4,1.2c-1,20.2-2.1,33.2-1.8,53.3c0,1.1,1.2,1.6,2,1.4
			c11.1-0.4,24.1-4.1,31.9-7.3c5.6-2.2,6.2-3.5,6.7-7c1.4-10.9,0-32.4-6.2-41.3C761.9,1268.6,760.8,1267.6,759.6,1267.4z"/>
		<path d="M530,922.6c-216.2,0-391.4,175.3-391.4,391.4s175.3,391.4,391.4,391.4s391.4-175.3,391.4-391.4S746.2,922.6,530,922.6z
			 M486.8,1058.9c2.1-8.9,5.5-8.9,15.4-9.5c23-1.5,49.9-1.3,74.8,0.4c1,0,1.2,0.2,1,1.2c-0.2,0.8-3.5,12.6-4.9,17.2
			c0,0-0.6,0.9-1.4,0.9c-3.1,0-41.2,0-50.8,3.5c-4.1,1.5-5.3,3.5-6.4,10.3c-2,12.4-2.9,21.9-2.9,32.6c-0.4,13.2,0,26.7,4.8,39.5
			c1.6,4.5,7,5.4,11.3,5.8c7.1,0.8,8.9,1,16.9-0.4c1.6-0.2,1.6-0.9,1.6-2.3c0.2-1.7,2-52.2,2-52.2c0-0.8,0.2-1.3,1.2-1.3
			c0.6,0,22.6,0,23.2,0c0.8,0,0.8,0.5,1,1.1l-0.6,73.8c0,1-1.2,1.4-1.4,1.4h0.2c-19.9,1.2-52,1-68.7-0.4c-6.8-0.6-9.2-1.2-11.5-7
			c-7.8-20.2-9.8-41.7-9.8-73.1C481.9,1090.9,483.9,1070.8,486.8,1058.9z M290.5,1376.7c0,0-0.4,0.8-1,0.8h-22.2
			c-0.9,0-0.9-0.8-0.9-0.8c-1-27.7-1-102.8-2.1-130.3c0-0.4,0.4-0.9,1.5-0.9c1,0,25.3,0.2,26.3,0c1,0,1.2,0,1.2,0.9
			c0,0.8-1.2,77.2-1.2,77.2c12.9-0.6,21.4-1,31.4-6c2.9-1.6,4.7-2.5,5.8-6.6c2.6-11.6,5.9-27,7.1-64.6c0.3-0.9,1.2-0.9,1.2-0.9h25.9
			c1.1,0,1.5,0,1.5,1.1c-2.9,28.9-9.2,68.3-14.6,84.8c-1.4,4.6-1.8,5-6.8,7.3c-2.9,1.3-8.4,2.3-11.1,3.5l27.1,32.6c0.2,0,1,1,0,1.6
			c-0.8,0.4-20.3,5.8-21.6,6c-0.9,0.2-1.4-0.4-1.4-0.4l-31.1-35.7c0,0-8.2,1-13.2,1C291.3,1357.8,291.3,1365.5,290.5,1376.7z
			 M575.1,1567.8c-1.3,4.8-1.8,8.3-7.2,9.5c-12.8,2.5-60.3,3.5-76.3,0c-5.4-1.2-6.2-2.5-7.7-8.2c-8-29.9-9.8-86.3-0.4-117.1
			c1.3-3.7,2.9-4.1,6-4.7c10.3-2,68.7-2.5,80.4-0.2c5.2,0.9,6,1.6,7.4,6.3C587.2,1485.8,582.2,1535.7,575.1,1567.8z M755.7,1528.2
			c-3.5,3-6,4.9-7.3,5.7c-21-19.3-36.8-33.8-47-43.5L530,1328.8l-171.3,161.5c-10.3,9.7-25.8,24-46.6,43.1c-2.5-0.3-4.4-1.1-5.8-2.4
			c-0.9-0.9-2.2-2.5-3.5-4.7c-1.4-2.2-2.5-3.7-3.3-4.5c-1.1-1.1-2-1.6-2.7-1.7l0.3-2.2c11.5-9.6,25-21.7,40.3-36.1
			c3.8-3.5,98.1-92.5,177.3-167.4L343,1152.5c-10.3-9.7-25.5-24.3-45.7-43.9c0.3-2.3,1.1-4.2,2.5-5.4c1-0.9,2.6-2.1,5-3.4
			c2.3-1.3,3.9-2.3,4.8-3.1c1.1-1,1.7-1.9,1.8-2.6l2.3,0.2c10.3,11,23,23.6,38.3,38c3.8,3.5,98.5,92.8,177.9,167.6
			c48.4-45.8,88.2-83.4,92.7-87.9c12.2-12.1,97.3-92.5,103.5-98.4c9.7-9.1,18.5-15.5,26.5-19c0.4,2,1.9,4.2,4.5,6.6
			c3.2,3.3,5.2,5.5,6,6.9c-20.5,19.9-35.9,34.6-46.2,44.3l-171.7,161.9c48.4,45.5,88.1,82.8,92.8,87c12.9,11.6,98.2,91.8,104.4,97.6
			c9.7,9.2,16.4,17.5,20.2,24.9C760.6,1524.3,758.3,1525.8,755.7,1528.2z M794.8,1376.3c-0.4,0.2-13.8,4.7-18.7,6.4
			c-0.8,0.2-1.8,0.2-2.5-0.4c-0.4-0.4-31.6-36.1-31.6-36.1c-2.1,0.4-3.3,0.2-14.1,2.2c-0.7,10.3-0.7,18.2-1.1,28.3
			c-0.2,0.2-0.6,1.4-1.2,1.4h-21c-1,0-1.6-1-1.6-1.6c0,0-2.5-128.1-2.5-129c0-1,1.4-1.1,2.5-1.1c30.2-1.5,65-2.1,82.6,0.8
			c3.2,0.4,4.6,2.1,5.8,7c4.3,18.8,6.2,51.8,1.8,73.1c-0.6,3.3-0.4,5.8-4.1,7.4c-5.9,2.5-12.5,4.1-19.7,5.6
			c10.3,13.8,16.6,21.4,26.1,34.4C795.8,1375.3,795.6,1375.9,794.8,1376.3z"/>
		<path d="M545.4,1469.9c-5.3-1.9-22-2.1-28.3-0.4c-4.1,1.4-5.5,2.3-6.8,5.4c-6.5,15.3-8.8,62.6,1.9,78c0.8,1.1,2.1,2.3,3.7,2.9
			c6.4,1.9,19.1,2.3,26.9,0.4c2.7-0.6,3.5-1.2,4.8-3.5c8.4-15.9,10.4-61.3,2.6-78.5C549.1,1471.7,548.3,1470.9,545.4,1469.9z"/>
	</g>
</g>
</svg>
