<?xml version="1.0" encoding="utf-8"?>
<!-- Generator: Adobe Illustrator 18.1.1, SVG Export Plug-In . SVG Version: 6.00 Build 0)  -->
<svg version="1.1" id="Layer_1" xmlns="http://www.w3.org/2000/svg" xmlns:xlink="http://www.w3.org/1999/xlink" x="0px" y="0px"
	 viewBox="-141 573.7 516 455.3" enable-background="new -141 573.7 516 455.3" xml:space="preserve">
<g>
	<g id="XMLID_1_">
		<g>
			<path fill="#0A0A0A" d="M27.8,815.5v17.1h39v-17.1h-8.3v-11.9h12.9l17,29H112v-17.2h-7.4L93,795.8c8.9-1.8,12.5-5,12.5-18.7
				c0-9.5-1.2-13.8-4.6-17.3c-2.9-2.9-7.1-4-13.7-4H27.7v17.1h8.1v42.6H27.8z M355.8,714c6.3,3.7,11.4,12.6,11.2,20v187.9
				c0,7.3-5.7,14.9-12.6,17l-224.8,81.9c-6.8,2-18.2,2-25.1,0l-224.8-81.9c-6.9-2.1-12.6-9.8-12.6-17V734c0-7.3,5.1-16.2,11.3-20
				l227.4-128.6c6.2-3.7,16.4-3.7,22.7,0L355.9,714H355.8z M279.4,772.9v-17.1h-35.8V773h7.6v22.2l-25.6-39.4h-35v17.1h8.1v42.6
				h-8.1v17.2h36.7l-0.1-17.2H219v-26.7l27.1,43.8h25.3v-59.8H279.4z M267.5,916.1c5.1-5.2,7.9-13.2,7.9-32.5
				c0-19.3-2.7-27.3-8-32.4c-4.6-4.6-10.6-6-21.7-6h-52.4v17.1h8.1v42.6h-15.5l-11.6-19.8c8.9-1.8,12.5-5.1,12.5-18.7
				c0-9.5-1.2-13.8-4.6-17.3c-2.9-2.9-7.1-4-13.7-4h-59.5v17.1h8.1V905h-11.4l-20.3-60.1H50.7L30.3,905h-8.8v17.1h38.3v-16.8h-7
				l1.8-6.6h24.9l1.9,6.6h-7v16.8h73.5V905h-8.4v-11.9h12.9l17,29h76.2c11.1,0,17-1.4,21.6-6H267.5z M186.2,794.2h0.1
				c0-21.1-2.7-29.9-7.2-34.3c-2.9-3-6.3-4.2-14.3-4.2h-28.7c-8,0-11.3,1.2-14.3,4.2c-4.5,4.4-7,13.1-7,34.3c0,21.2,2.5,29.9,7,34.3
				c3,3,6.3,4.2,14.3,4.2h28.7c8,0,11.3-1.2,14.3-4.2C183.7,824.1,186.2,815.4,186.2,794.2z M182.6,675.5c0-1.5-2.9-3.2-4-4
				c-7.5-6.1-7.8-5.1-8.9-5.1c-1.7,0-39.8,2.4-78.9,2.4c-16.6,0-29.6-1.6-38.3,2.2l0.1,0.1c-22,9.4-25.4,37.9-7.3,37.5
				c19-0.7,28.9-10.2,35.3-20.2c1.9-3.1,0.7-4.3-1.1-2c-4.8,5.9-12.7,12.7-21.4,15.8c-20.6,7.4-13.1-23.2,1.1-27.1
				c11.3-3.1,30.1,2.3,47.9,5.4c0,0-1.3,0.9-2,1.4c-1.5,1.2-8.9,7.6-21.7,20c-7.6,7.4-22.8,22-22.8,27.3c0,1.9,5.8,11.9,9.1,11.9
				c1.3,0,0.4-2.7,7-11.2c11-14.3,28-30.8,34.7-37.3c5.7-5.5,13.3-11.7,16-11.7c2.1,0,5.1-0.1,8.5-0.2c-13.4,12-35.3,32.2-45.7,47.5
				c-0.5,0.8-0.8,1.5-0.8,1.9c0,3.1,5.5,7.5,7.1,7.5c0.9,0,2.3-3.4,3-4.1c11.7-14.4,19.1-20.7,25.6-23.4
				c-5.7,5.6-12.2,11.8-12.2,17.1c0,4.2,2.4,10.1,7.2,10.1c3.9,0,12.5-6.2,17.6-10.9c0.5,3.5,8,11.7,11.6,11.7
				c8.2,0,16.5-5.9,22.7-11.5c3.4-3.2,6.8-7.1,6.8-8c0-0.3-0.2-0.8-0.9-0.8c-0.8,0-8.8,7.5-24.2,13.1c-1,0.3-2.9,0.8-4.4,0.8
				c-2.6,0-3.1-1.7-3.1-3.1c0-1.5,0.9-3.6,2.5-6c1.9,1.9,4.4,2.9,6.1,2.9c6.3,0,20.1-11.4,20.1-19.5c0-1-0.1-2.4-3.1-5.3
				c-2.3-2.3-4.5-4-6.3-4c-3.2,0-8.3,2.7-15,8.7c-3.4,3.1-6.7,6.4-9.1,10c-0.8,1.3-3.8,5.4-6.6,7.6c-4.9,3.8-10.1,7.2-11.7,7.2
				c-0.6,0-1.1-0.3-1.1-1.2c0-4.2,12.8-14.3,16.9-17.7c1.4-1.3,1.8-1.7,1.8-2.7c0-3.6-4.8-6.1-7.4-6.1c-4.4,0-7.5,2-13,4.7
				c2.1-2.7,10.1-8.3,21.5-19.2c3.6-3.4,8-6.9,13.8-8.5c7.6-0.6,15.4-1.3,21.5-2C179,677.2,182.6,676.5,182.6,675.5z M37.9,862.3
				v-17.1H-0.6v16.9h6.7L-3,875.3h-0.4l-8.5-13.2h6.7v-16.9h-39.9v17.1h7.6l22.3,30.7v12h-8.7v17.1H16V905H7.3v-12.3l22.8-30.3H37.9
				z M21.6,832.7v-17.2H0.9v-42.6h20.7v-17.1h-66.7v17.1h20.7v42.6h-20.7v17.2H21.6z"/>
			<path fill="#0A0A0A" d="M250,863.7c1.2,1.2,1.6,4.4,1.6,19.9c0,15.4-0.4,18.7-1.6,19.9c-1.1,1.1-3,1.4-7.9,1.4h-17.9l-0.2-42.6
				h18.1C246.9,862.3,248.9,862.6,250,863.7z"/>
			<path fill="#0A0A0A" d="M168.1,705.1c0.6,0,1,0.2,1,0.9c0,2.6-11.1,14.4-15.9,14.4h0c-0.3,0.1-1.3-0.2-2-1.1
				c3.9-4.7,9.5-9.8,15.1-13.7C166.7,705.4,167.5,705.1,168.1,705.1z"/>
			<path fill="#0A0A0A" d="M161.9,863c1,1.1,1.2,2.8,1.2,6.7c0,3.9-0.2,5.6-1.2,6.7c-0.7,0.7-1.9,0.9-5.1,0.9h-17.2v-15.2h17.2h0.1
				C160.1,862,161.2,862.3,161.9,863z"/>
			<path fill="#0A0A0A" d="M161.3,774.3c0.8,0.8,1.3,3.2,1.3,20c0,16.8-0.6,19.2-1.3,20c-0.7,0.7-1.8,0.9-5.1,0.9h-11.1
				c-3.4,0-4.5-0.3-5.1-0.9c-0.9-0.9-1.4-3.2-1.4-20c0-16.8,0.6-19.2,1.3-20c0.7-0.7,1.8-0.9,5.1-0.9h11
				C159.5,773.4,160.5,773.7,161.3,774.3z"/>
			<path fill="#0A0A0A" d="M80.7,773.6c1,1.1,1.2,2.7,1.2,6.7c0,4-0.2,5.6-1.2,6.7h0c-0.6,0.7-1.8,0.7-5,0.9H58.4v-15.2h17.2
				C78.8,772.7,80,772.9,80.7,773.6z"/>
			<polygon fill="#0A0A0A" points="69.8,864.9 75.5,882.6 58.9,882.6 64.3,864.9 			"/>
		</g>
		<g>
		</g>
	</g>
</g>
</svg>
